<?xml version="1.0" encoding="UTF-8" standalone="no"?><!DOCTYPE svg PUBLIC "-//W3C//DTD SVG 1.1//EN" "http://www.w3.org/Graphics/SVG/1.1/DTD/svg11.dtd"><svg width="100%" height="100%" viewBox="0 0 3508 4961" version="1.1" xmlns="http://www.w3.org/2000/svg" xmlns:xlink="http://www.w3.org/1999/xlink" xml:space="preserve" xmlns:serif="http://www.serif.com/" style="fill-rule:evenodd;clip-rule:evenodd;stroke-linecap:round;stroke-linejoin:bevel;stroke-miterlimit:1.5;"><g transform="matrix(423.678153,0,0,423.678153,2026.479744,2892.415434)"></g><text x="1045.241px" y="2892.415px" style="font-family:'Start-Story', 'Start Story';font-size:423.678px;fill:#fff;">migo</text><g transform="matrix(423.678153,0,0,423.678153,3242.637345,2902.596257)"></g><text x="2064.388px" y="2902.596px" style="font-family:'Start-Story', 'Start Story';font-size:423.678px;fill:#fff;">Lea<tspan x="2786.76px 3011.309px " y="2902.596px 2902.596px ">se</tspan></text><path d="M686.232,2386c171.774,0 311.232,179.881 311.232,401.444c0,70.468 -14.381,139.695 -41.697,200.722m-282.255,-601.836c4.219,-0.219 8.46,-0.33 12.72,-0.33m-269.535,602.166c-27.316,-61.027 -41.697,-130.254 -41.697,-200.722c0,-216.068 132.626,-392.495 298.512,-401.114" style="fill:#fff;fill-opacity:0;stroke:#fff;stroke-width:58.33px;"/><path d="M562.616,2782.933l113.248,53.97l114.538,-51.958" style="fill:none;stroke:#fff;stroke-width:41.67px;"/><circle cx="783.376" cy="2650.654" r="36.706" style="fill:#fff;stroke:#fff;stroke-width:2.71px;stroke-linejoin:round;"/><circle cx="589.376" cy="2646.654" r="36.706" style="fill:#fff;stroke:#fff;stroke-width:2.71px;stroke-linejoin:round;"/></svg>